<svg xmlns="http://www.w3.org/2000/svg" width="331.712" height="58.48" viewBox="0 0 331.712 58.48">
  <path id="Path_16" data-name="Path 16" d="M11.28.64Q6.16.64,6.16-4.64V-51.2q0-5.2,5.2-5.2H30.64q9.28,0,14.32,4.44T50-39.52a16.239,16.239,0,0,1-3.28,10.44,16.347,16.347,0,0,1-9.44,5.56q4.08,1.28,6.72,6.16L50-6.24a5.508,5.508,0,0,1,.52,4.72Q49.68.64,46.4.64a6.163,6.163,0,0,1-3.52-.92,7.837,7.837,0,0,1-2.4-2.84L32.4-18A7.844,7.844,0,0,0,29-21.64a11.794,11.794,0,0,0-5-.92H16.4V-4.64Q16.4.64,11.28.64Zm5.12-30.8H28.88q11.2,0,11.2-9.12,0-9.04-11.2-9.04H16.4ZM78.32.8A24.633,24.633,0,0,1,66.88-1.68a17.629,17.629,0,0,1-7.4-7.04,21.445,21.445,0,0,1-2.6-10.8A21.647,21.647,0,0,1,59.4-30.16a18.518,18.518,0,0,1,6.96-7.16,19.651,19.651,0,0,1,10.12-2.6q8.32,0,13.16,5.28t4.84,14.4q0,2.96-3.84,2.96H66.48Q67.6-6.8,78.48-6.8a24.1,24.1,0,0,0,4.68-.52,17.045,17.045,0,0,0,4.92-1.8,4.527,4.527,0,0,1,3.52-.76,3.155,3.155,0,0,1,2.04,1.72,3.964,3.964,0,0,1,.16,2.84,4.721,4.721,0,0,1-2.28,2.68,20.782,20.782,0,0,1-6.44,2.6A30.187,30.187,0,0,1,78.32.8ZM76.88-33.12a9.629,9.629,0,0,0-7.12,2.72,12.1,12.1,0,0,0-3.28,7.36H86.16q-.32-4.88-2.68-7.48A8.46,8.46,0,0,0,76.88-33.12ZM120.48.8a21.818,21.818,0,0,1-10.72-2.52,17.348,17.348,0,0,1-7.04-7.16,22.751,22.751,0,0,1-2.48-10.88,22.046,22.046,0,0,1,2.48-10.76,17.026,17.026,0,0,1,7.04-6.96,22.4,22.4,0,0,1,10.72-2.44,25.232,25.232,0,0,1,5.72.72,19.353,19.353,0,0,1,5.8,2.4,3.647,3.647,0,0,1,1.88,2.48,4.186,4.186,0,0,1-.4,2.8,3.954,3.954,0,0,1-2,1.84,3.3,3.3,0,0,1-3-.4,14.459,14.459,0,0,0-7.12-2.08q-5.2,0-8.04,3.24t-2.84,9.24q0,5.92,2.84,9.32a9.892,9.892,0,0,0,8.04,3.4,14.892,14.892,0,0,0,7.12-2,3.225,3.225,0,0,1,2.96-.4,3.438,3.438,0,0,1,1.84,1.88,4.545,4.545,0,0,1,.24,2.8,3.824,3.824,0,0,1-1.84,2.44,19.755,19.755,0,0,1-5.6,2.32A23.726,23.726,0,0,1,120.48.8Zm24.8-.16q-5.12,0-5.12-5.12V-34.72q0-5.04,4.88-5.04t4.88,5.04v2.48q2.88-6.88,12.32-7.68,3.44-.4,3.84,3.92.4,4.24-4.16,4.72l-1.76.16q-9.84.96-9.84,10.08V-4.48Q150.32.64,145.28.64Zm40.4.16q-14.4,0-14.4-16.16V-34.72q0-5.04,4.96-5.04,5.04,0,5.04,5.04V-15.2q0,4.16,1.68,6.16t5.36,2a8.548,8.548,0,0,0,6.56-2.76,10.335,10.335,0,0,0,2.56-7.32v-17.6q0-5.04,4.96-5.04,5.04,0,5.04,5.04V-4.48q0,5.12-4.88,5.12t-4.88-5.12V-5.84Q193.76.8,185.68.8ZM222.8-47.12a6.3,6.3,0,0,1-4.36-1.4,4.946,4.946,0,0,1-1.56-3.88,4.921,4.921,0,0,1,1.56-3.92,6.42,6.42,0,0,1,4.36-1.36q5.92,0,5.92,5.28T222.8-47.12Zm0,47.68a4.665,4.665,0,0,1-3.68-1.44,5.813,5.813,0,0,1-1.28-4V-34.24q0-5.44,4.96-5.44,5.04,0,5.04,5.44V-4.88a5.813,5.813,0,0,1-1.28,4A4.768,4.768,0,0,1,222.8.56ZM256.16.8q-15.52,0-15.52-15.36V-31.6h-4.16q-4,0-4-3.76t4-3.76h4.16V-46.4q0-5.04,5.04-5.04,4.96,0,4.96,5.04v7.28h8.48q4,0,4,3.76t-4,3.76h-8.48v16.48q0,3.84,1.68,5.76t5.44,1.92a10.742,10.742,0,0,0,2.4-.24A14.908,14.908,0,0,1,262-8a1.875,1.875,0,0,1,1.6.6,4.2,4.2,0,0,1,.64,2.76,7.29,7.29,0,0,1-.52,2.84,3.019,3.019,0,0,1-1.88,1.72,21.68,21.68,0,0,1-2.72.6A18.271,18.271,0,0,1,256.16.8Zm31.68,0A24.633,24.633,0,0,1,276.4-1.68,17.629,17.629,0,0,1,269-8.72a21.445,21.445,0,0,1-2.6-10.8,21.647,21.647,0,0,1,2.52-10.64,18.518,18.518,0,0,1,6.96-7.16A19.651,19.651,0,0,1,286-39.92q8.32,0,13.16,5.28T304-20.24q0,2.96-3.84,2.96H276Q277.12-6.8,288-6.8a24.1,24.1,0,0,0,4.68-.52,17.045,17.045,0,0,0,4.92-1.8,4.527,4.527,0,0,1,3.52-.76,3.155,3.155,0,0,1,2.04,1.72,3.964,3.964,0,0,1,.16,2.84,4.721,4.721,0,0,1-2.28,2.68,20.782,20.782,0,0,1-6.44,2.6A30.187,30.187,0,0,1,287.84.8ZM286.4-33.12a9.629,9.629,0,0,0-7.12,2.72A12.1,12.1,0,0,0,276-23.04h19.68q-.32-4.88-2.68-7.48A8.46,8.46,0,0,0,286.4-33.12ZM317.04.64q-5.12,0-5.12-5.12V-34.72q0-5.04,4.88-5.04t4.88,5.04v2.48q2.88-6.88,12.32-7.68,3.44-.4,3.84,3.92.4,4.24-4.16,4.72l-1.76.16q-9.84.96-9.84,10.08V-4.48Q322.08.64,317.04.64Z" transform="translate(-6.16 57.68)" fill="#fff"/>
</svg>
